<svg width="800" height="800" viewBox="0 0 800 800" fill="none" xmlns="http://www.w3.org/2000/svg">
<g clip-path="url(#clip0_1_2)">
<rect x="297" y="498.853" width="22" height="100" rx="11" transform="rotate(-50 297 498.853)" fill="#8B6A4E"/>
<rect x="230" y="548.939" width="22" height="100" rx="11" transform="rotate(-65 230 548.939)" fill="#8B6A4E"/>
<rect width="22" height="100" rx="11" transform="matrix(-0.422618 -0.906308 -0.906308 0.422618 553.132 548.939)" fill="#8B6A4E"/>
<rect x="267" y="513.141" width="22" height="100" rx="11" transform="rotate(-40 267 513.141)" fill="#8B6A4E"/>
<rect width="22" height="100" rx="11" transform="matrix(-0.766044 -0.642788 -0.642788 0.766044 527.132 513.141)" fill="#8B6A4E"/>
<path d="M746 472.325C746 543.079 682.972 558 606.126 558C529.281 558 456 543.079 456 472.325C456 426.093 484.992 384.211 527.035 358.365C549.335 344.656 579.493 329 606.126 329C634.904 329 669.58 349.286 692.54 365.031C730.891 391.332 746 428.067 746 472.325Z" fill="#6CBF6E"/>
<path d="M330 472.325C330 543.079 266.972 558 190.126 558C113.281 558 40 543.079 40 472.325C40 426.093 68.9925 384.211 111.035 358.365C133.335 344.656 163.493 329 190.126 329C218.904 329 253.58 349.286 276.54 365.031C314.891 391.332 330 428.067 330 472.325Z" fill="#6CBF6E"/>
<path d="M368.847 597.978C369.491 581.238 383.248 568 400 568C416.752 568 430.509 581.238 431.153 597.978L438.463 788.03C439.302 809.852 421.838 828 400 828C378.162 828 360.698 809.852 361.537 788.03L368.847 597.978Z" fill="#8B6A4E"/>
<rect x="346" y="524.92" width="35" height="150" rx="14" transform="rotate(-18.1801 346 524.92)" fill="#8B6A4E"/>
<rect x="295" y="566.498" width="35" height="150" rx="14" transform="rotate(-40 295 566.498)" fill="#8B6A4E"/>
<rect x="479.418" y="536" width="35" height="150" rx="14" transform="rotate(40 479.418 536)" fill="#8B6A4E"/>
<rect x="398" y="472.694" width="22" height="100" rx="11" transform="rotate(-15 398 472.694)" fill="#8B6A4E"/>
<rect x="378.882" y="464" width="22" height="100" rx="11" transform="rotate(15 378.882 464)" fill="#8B6A4E"/>
<rect x="455.461" y="470" width="22" height="100" rx="11" transform="rotate(22 455.461 470)" fill="#8B6A4E"/>
<rect x="423.191" y="515" width="35" height="150" rx="14" transform="rotate(22 423.191 515)" fill="#8B6A4E"/>
<path d="M553 360.353C553 440.994 481.278 458 393.833 458C306.388 458 223 440.994 223 360.353C223 307.66 255.991 259.926 303.833 230.468C329.209 214.844 363.527 197 393.833 197C426.58 197 466.04 220.121 492.167 238.066C535.807 268.042 553 309.911 553 360.353Z" fill="#6CBF6E"/>
<path d="M440 400.598C440 479.385 369.8 496 284.21 496C198.619 496 117 479.385 117 400.598C117 349.116 149.292 302.479 196.119 273.699C220.956 258.434 254.546 241 284.21 241C316.262 241 354.884 263.589 380.457 281.122C423.172 310.409 440 351.315 440 400.598Z" fill="#6CBF6E"/>
<path d="M664 400.598C664 479.385 593.8 496 508.21 496C422.619 496 341 479.385 341 400.598C341 349.116 373.292 302.479 420.119 273.699C444.956 258.434 478.546 241 508.21 241C540.262 241 578.884 263.589 604.457 281.122C647.172 310.409 664 351.315 664 400.598Z" fill="#6CBF6E"/>
</g>
<defs>
<clipPath id="clip0_1_2">
<rect width="800" height="800" fill="white"/>
</clipPath>
</defs>
</svg>
